<svg xmlns="http://www.w3.org/2000/svg" version="1.0" width="712pt" height="712pt" viewBox="0 0 712 712" preserveAspectRatio="xMidYMid meet"  xmlns:xlink="http://www.w3.org/1999/xlink">
<metadata>
Created by potrace 1.15, written by Peter Selinger 2001-2017
</metadata>
<g transform="translate(0.000000,372.000000) scale(0.100000,-0.100000)" fill="#000000" stroke="none" id="logo">
<path d="M5120,3565c-30,-9,-78,-30,-107,-48c-72,-44,-638,-599,-665,-650c-28,-55,-27,-123,3,-182c32,-64,107,-129,164,-144c116,-29,191,15,590,348c60,50,113,91,118,91c5,0,66,-56,136,-124c217,-212,273,-260,341,-296c92,-47,190,-31,277,45c63,55,93,114,93,181c-1,85,-28,126,-188,283c-213,208,-419,398,-470,433c-95,65,-200,88,-292,63Z" transform="matrix(1 0 0 1 449.361 -1707.96)"/>
<path d="M379,3490c-98,-17,-162,-69,-203,-167c-21,-48,-21,-59,-24,-1398c-2,-913,0,-1380,8,-1443c26,-230,102,-317,275,-317c67,0,87,4,125,25c99,56,145,164,160,375c12,165,12,2428,1,2596c-10,145,-31,205,-89,262c-62,61,-154,85,-253,67Z" transform="matrix(1 0 0 1 449.361 -1707.96)"/>
<path d="M3373,3490c-96,-20,-152,-69,-189,-165c-18,-48,-19,-96,-19,-1500l0,-1450l28,-57c32,-66,70,-101,146,-136c44,-20,64,-24,115,-19c107,9,183,66,235,177l26,55l3,1425c3,1624,9,1514,-77,1600c-63,62,-170,90,-268,70Z" transform="matrix(1 0 0 1 449.361 -1707.96)"/>
<path d="M1255 2386 c-116 -29 -195 -93 -220 -180 -20 -70 -16 -90 85 -351 45 -115 101 -262 125 -325 24 -63 114 -295 200 -515 317 -808 297 -769 398 -819 112 -56 260 -30 329 57 25 32 188 411 501 1162 231 554 259 627 264 686 7 74 -17 146 -66 196 -55 57 -103 77 -197 81 -67 3 -88 0 -127 -18 -97 -46 -136 -115 -290 -525 -139 -369 -218 -556 -265 -635 l-20 -31 -27 78 c-55 155 -299 791 -348 908 -42 98 -60 129 -102 171 -41 42 -61 54 -104 63 -62 13 -71 13 -136 -3z" transform="matrix(1 0 0 1 449.361 -1707.96)"/>
</g>
<g id="background"><rect id="svgEditorBackground" x="0" y="0" width="712" height="712" style="fill:none;stroke:none;"/></g></svg>